<svg width="75" height="83" viewBox="0 0 75 83" fill="none" xmlns="http://www.w3.org/2000/svg">
<path d="M37.469 76.5687C46.8882 75.887 54.5968 69.6777 60.8669 61.8963C67.7274 53.3821 75.0059 43.5457 73.0978 32.3519C71.1326 20.8225 61.4606 13.4119 51.7754 8.55917C42.4096 3.8665 31.2052 0.98486 22.4766 6.98835C14.3714 12.5631 15.2766 24.9291 13.0723 35.179C10.826 45.6246 4.56945 56.5856 9.87493 65.5865C15.4819 75.099 27.2029 77.3116 37.469 76.5687Z" stroke="black"/>
<path d="M45.4836 34.2691C45.5245 33.4267 45.5852 32.2069 45.3603 31.9686C43.6144 30.1182 38.876 31.2551 37.9817 33.7705C37.4164 35.3607 37.1907 37.5326 37.3046 40.2863C35.5212 40.2863 34.5213 40.4055 34.305 40.6441C34.103 40.8669 34.0755 44.5772 34.305 44.5772C35.2468 44.5772 37.0154 44.8154 37.0154 44.8154C37.0154 44.8154 37.084 54.3918 37.0154 54.4696C36.7006 54.8265 26.4965 54.4696 25.1247 54.4696C24.3844 54.4696 25.1247 42.2005 25.1247 40.8697C25.1247 39.9189 25.0346 29.158 25.1247 29.0582C25.5018 28.6382 29.1209 28.7321 29.6705 28.7321C32.9303 28.7321 47.0051 26.9331 49.2274 28.4163C50.1707 29.0464 50.0238 33.1119 50.0238 34.0822C50.0238 35.5032 49.9763 53.7989 49.5819 54.4696C49.2274 55.0727 41.5777 54.7432 41.086 54.4696C40.936 54.3862 40.936 51.2718 41.086 45.1267C43.5141 45.4424 44.7282 45.2592 44.7282 44.5772C44.7282 43.2531 44.7282 41.6364 44.7282 41.0901C44.7282 40.7928 43.6035 40.6441 41.354 40.6441C41.2845 38.5345 41.4194 37.1053 41.7588 36.3565C42.3046 35.1524 42.874 35.3557 44.3149 35.5738" stroke="black" stroke-opacity="0.9" stroke-linecap="round" stroke-linejoin="round"/>
</svg>
