<svg width="76" height="83" viewBox="0 0 76 83" fill="none" xmlns="http://www.w3.org/2000/svg">
<path d="M48.8562 61.8299C47.2987 62.4851 45.609 62.1782 43.7303 61.8042C43.6841 61.795 43.6377 61.7857 43.5913 61.7765C41.812 61.4215 39.8593 61.0319 38.0061 61.732C36.4099 62.335 34.9586 63.4718 33.6055 64.7519C32.7621 65.5498 31.927 66.434 31.1125 67.2965C30.6309 67.8064 30.1566 68.3088 29.6919 68.7811C28.4153 70.0789 27.1847 71.1817 25.9319 71.8181C24.7022 72.4428 23.4733 72.6085 22.147 72.0633C20.9443 71.5689 20.1817 70.6542 19.6997 69.4128C19.2113 68.155 19.0206 66.582 18.9731 64.8305C18.9355 63.4436 18.9876 61.9794 19.0402 60.5034C19.0539 60.1168 19.0677 59.7295 19.0799 59.3424C19.1383 57.4923 19.1604 55.6534 18.9546 54.0287C18.4247 49.8476 18.4483 45.8029 18.5291 41.543C18.5682 39.4793 18.7485 37.4733 18.9421 35.4507C18.9586 35.2782 18.9752 35.1056 18.9919 34.9328C19.1698 33.0841 19.3496 31.2159 19.4288 29.2957C19.5128 27.2585 19.245 25.09 18.8909 22.9254C18.7553 22.0964 18.608 21.2731 18.4619 20.456C18.2225 19.1172 17.9861 17.7951 17.8087 16.492C17.2361 12.2884 17.3421 8.65337 19.8504 6.20929C22.0477 4.06825 24.9333 4.44555 28.2124 5.85502C29.8385 6.55396 31.5066 7.48415 33.1627 8.41954C33.2593 8.47407 33.3558 8.52864 33.4523 8.58318C35.0001 9.45808 36.5373 10.3269 37.9788 10.971C40.1104 11.9233 41.8772 13.5077 43.6894 15.194C43.7955 15.2926 43.9017 15.3917 44.0081 15.4909C45.7005 17.069 47.4542 18.7042 49.5459 19.8207C51.6193 20.9274 53.9644 21.3432 56.1932 21.7384C56.6257 21.8151 57.0539 21.891 57.4749 21.971C60.108 22.4717 62.5008 23.1335 64.326 25.0091C66.3649 27.1043 68.3496 29.7665 69.6462 32.6344C70.9435 35.504 71.5361 38.5422 70.8536 41.418C70.1395 44.4274 68.0157 46.3805 65.4031 48.1396C64.5686 48.7014 63.7057 49.2301 62.8297 49.7668C62.3253 50.0759 61.8166 50.3876 61.3064 50.7098C59.9265 51.5814 58.5664 52.5124 57.3864 53.6112C56.3245 54.6002 55.3644 55.7574 54.435 56.8776C54.0398 57.354 53.6502 57.8237 53.2606 58.2709C51.9298 59.7985 50.5672 61.11 48.8562 61.8299Z" stroke="black"/>
<path d="M26.9154 49.6651C26.3563 47.6533 26.6198 45.534 26.3844 43.4759C26.1841 41.7259 25.8152 32.3004 27.0921 30.905C29.3695 28.4163 46.2966 27.0404 48.6835 30.5183C50.4169 33.0436 50.0993 37.9952 50.0993 40.9618C50.0993 44.1661 50.7793 49.1155 48.5064 51.599C45.0865 55.3363 32.761 54.9847 28.154 53.7264" stroke="black" stroke-opacity="0.9" stroke-linecap="round" stroke-linejoin="round"/>
<path d="M26.3197 38.8863C28.0525 38.2219 32.9947 39.2932 33.1867 38.8472C33.6707 37.7224 34.9125 35.3766 37.9531 34.7323C40.0879 34.28 43.2667 34.7323 44.2903 37.0365C49.3158 48.3494 38.6917 51.6798 35.6579 49.8827C32.974 48.293 33.1867 46.1409 33.1867 44.4583" stroke="black" stroke-opacity="0.9" stroke-linecap="round" stroke-linejoin="round"/>
<path d="M37.127 39.7694C37.6988 39.0762 38.8737 38.1496 39.786 38.401C42.661 39.1936 42.6129 45.3629 39.6085 46.0258C36.7874 46.6479 34.6607 42.107 37.127 40.7469" stroke="black" stroke-opacity="0.9" stroke-linecap="round" stroke-linejoin="round"/>
<path d="M46.0489 38.8319C46.7918 38.7187 49.1847 38.8155 49.909 38.6743" stroke="black" stroke-opacity="0.9" stroke-linecap="round" stroke-linejoin="round"/>
<path d="M46.978 34.2312C46.978 34.1269 46.978 34.0233 46.978 33.9189" stroke="black" stroke-opacity="0.9" stroke-linecap="round" stroke-linejoin="round"/>
</svg>
