<svg width="75" height="83" viewBox="0 0 75 83" fill="none" xmlns="http://www.w3.org/2000/svg">
<path d="M37.5345 75.7249C42.6409 77.029 47.9405 78.5858 53.0104 77.1189C58.333 75.579 63.9912 72.6019 66.6635 67.2972C69.3659 61.9329 66.947 55.259 67.1128 49.1252C67.2497 44.0605 70.1866 38.2807 67.5605 34.1229C64.6234 29.4728 57.5672 31.1183 53.5273 27.6159C50.6705 25.1391 51.0007 19.8349 48.1744 17.3159C45.2267 14.6886 41.015 15.0163 37.5345 13.3617C31.9308 10.6977 27.2547 2.98526 21.3194 4.54906C15.9561 5.96217 15.2303 14.4553 12.7567 19.8901C10.6543 24.5094 8.28532 29.0588 7.82347 34.2021C7.38318 39.1054 8.63997 43.9405 10.1818 48.5651C11.6127 52.8567 13.957 56.5674 16.4878 60.1894C19.0492 63.8551 21.677 67.433 25.1643 70.0071C28.927 72.7845 33.1236 74.5984 37.5345 75.7249Z" stroke="black"/>
<path d="M49.5775 28.4C46.3607 24.8526 42.0838 22.8989 37.5345 22.8989C32.9853 22.8989 28.7084 24.8526 25.4916 28.4C22.2748 31.9473 20.5032 36.6638 20.5032 41.6805C20.5032 46.047 21.8923 50.3003 24.4144 53.6568C24.6024 53.9069 24.9386 53.9415 25.1655 53.7343C25.3923 53.5271 25.4238 53.1563 25.2358 52.9062C22.8719 49.7603 21.5699 45.7736 21.5699 41.6805C21.5699 31.9729 28.7316 24.0752 37.5345 24.0752C46.3375 24.0752 53.4992 31.9729 53.4992 41.6805C53.4992 51.3881 46.3375 59.2858 37.5345 59.2858C33.5307 59.2858 29.7011 57.6442 26.7515 54.6633C26.5344 54.4439 26.197 54.4601 25.998 54.6995C25.799 54.939 25.8136 55.311 26.0308 55.5305C29.1777 58.7106 33.2631 60.4621 37.5345 60.4621C42.0838 60.4621 46.3607 58.5085 49.5775 54.9611C52.7943 51.4137 54.5659 46.6973 54.5659 41.6805C54.5659 36.6638 52.7943 31.9473 49.5775 28.4Z" fill="black" stroke="black" stroke-width="0.1"/>
<path d="M44.3357 47.5401C41.111 45.9677 37.6743 45.1704 34.1212 45.1704C32.0285 45.1704 29.9472 45.4534 27.9355 46.0113C27.194 46.217 26.7425 47.0496 26.929 47.8674C27.1156 48.685 27.8705 49.1831 28.6121 48.9774C30.4028 48.4807 32.2562 48.2288 34.1212 48.2288C37.2858 48.2288 40.3449 48.9382 43.2141 50.3373C43.9058 50.6744 44.7377 50.3189 45.0431 49.5572C45.3523 48.7859 45.035 47.8811 44.3357 47.5401ZM44.0675 49.0815C43.997 49.2574 43.805 49.3393 43.6454 49.2615C40.6396 47.7957 37.4352 47.0525 34.1212 47.0525C32.1686 47.0525 30.2275 47.3163 28.3519 47.8365C28.194 47.8803 28.0267 47.7814 27.9723 47.6122C27.9102 47.4188 28.0154 47.2021 28.1957 47.1521C30.1225 46.6178 32.116 46.3467 34.1212 46.3467C37.5248 46.3467 40.8163 47.1102 43.9042 48.616C44.0656 48.6946 44.1389 48.9035 44.0675 49.0815Z" fill="black" stroke="black" stroke-width="0.1"/>
<path d="M46.2307 41.9481C42.3992 40.1315 38.325 39.2104 34.1211 39.2104C32.0402 39.2104 29.9602 39.4417 27.9389 39.8979C27.0471 40.0991 26.4539 41.0877 26.6367 42.0728C26.8214 43.0678 27.7062 43.7119 28.6089 43.5089C30.4103 43.1023 32.2649 42.8963 34.1211 42.8963C37.8684 42.8963 41.4985 43.7165 44.9107 45.3342C45.1186 45.4329 45.3436 45.4844 45.5702 45.4844C46.239 45.4844 46.8419 45.0465 47.106 44.3691C47.4699 43.4355 47.0773 42.3495 46.2307 41.9481ZM46.126 43.9044C45.9958 44.2383 45.6348 44.3971 45.3319 44.2535C41.786 42.5724 38.0141 41.7199 34.1211 41.7199C32.1931 41.7199 30.2667 41.9341 28.3953 42.3564C28.0687 42.43 27.7484 42.1969 27.6817 41.837C27.6157 41.4809 27.8301 41.1231 28.1527 41.0503C30.1038 40.61 32.1119 40.3868 34.1211 40.3868C38.1792 40.3868 42.1118 41.2757 45.8094 43.0288C46.1156 43.174 46.2576 43.5667 46.126 43.9044Z" fill="black" stroke="black" stroke-width="0.1"/>
<path d="M49.063 36.123C48.2058 35.7007 47.3258 35.3107 46.4473 34.9642C46.1699 34.8548 45.8647 35.0141 45.7655 35.32C45.6663 35.6258 45.8107 35.9624 46.0881 36.0717C46.941 36.4083 47.7955 36.7868 48.6277 37.197C49.0698 37.4148 49.2746 38.0035 49.0767 38.4919C48.8792 38.9795 48.345 39.205 47.9024 38.987C43.557 36.8455 38.9203 35.7598 34.1211 35.7598C31.8851 35.7598 29.6494 36.0019 27.4761 36.4794C27.0003 36.5842 26.5254 36.2331 26.4308 35.7095C26.336 35.1851 26.6539 34.6611 27.1288 34.5567C29.416 34.0542 31.7686 33.7993 34.1211 33.7993C37.5574 33.7993 40.9432 34.3336 44.1845 35.3875C44.4669 35.4792 44.7636 35.3012 44.8469 34.9897C44.9302 34.6781 44.7687 34.351 44.4862 34.2592C41.1469 33.1735 37.6595 32.623 34.1211 32.623C31.6987 32.623 29.2761 32.8855 26.9204 33.4031C26.1363 33.5753 25.5109 34.2798 25.3746 35.1501C25.3336 35.4111 25.3377 35.6798 25.3847 35.9394C25.5409 36.8042 26.1796 37.494 26.969 37.6442C27.2056 37.6892 27.4492 37.6848 27.6847 37.633C29.7893 37.1706 31.9548 36.9361 34.1211 36.9361C38.7693 36.9361 43.2596 37.9875 47.4672 40.0609C48.2204 40.432 49.125 40.2306 49.6897 39.5689C49.8392 39.3939 49.9615 39.1913 50.0505 38.9719C50.4905 37.8862 50.0475 36.6081 49.063 36.123Z" fill="black" stroke="black" stroke-width="0.1"/>
</svg>
