<svg width="30" height="30" viewBox="0 0 30 30" fill="none" xmlns="http://www.w3.org/2000/svg">
<path d="M22.321 8.03618C20.3655 6.17605 17.7655 5.15161 15 5.15161C12.2345 5.15161 9.6345 6.17605 7.67898 8.03618C5.72345 9.89631 4.64648 12.3695 4.64648 15.0001C4.64648 17.2897 5.4909 19.52 7.02416 21.2801C7.13841 21.4112 7.34277 21.4294 7.48072 21.3207C7.61859 21.2121 7.63772 21.0176 7.52347 20.8865C6.08639 19.2369 5.29491 17.1464 5.29491 15.0001C5.29491 9.90973 9.64861 5.76841 15 5.76841C20.3514 5.76841 24.7051 9.90973 24.7051 15.0001C24.7051 20.0904 20.3514 24.2318 15 24.2318C12.566 24.2318 10.238 23.3709 8.44489 21.8078C8.31289 21.6928 8.1078 21.7013 7.98679 21.8269C7.86582 21.9524 7.87472 22.1475 8.00677 22.2626C9.91979 23.9302 12.4034 24.8486 15 24.8486C17.7655 24.8486 20.3655 23.8241 22.321 21.964C24.2766 20.1039 25.3535 17.6307 25.3535 15.0001C25.3535 12.3695 24.2766 9.89631 22.321 8.03618Z" fill="white" stroke="white" stroke-width="0.1"/>
<path d="M19.1345 18.0727C17.1741 17.2482 15.085 16.8301 12.925 16.8301C11.6528 16.8301 10.3876 16.9785 9.16466 17.271C8.71388 17.3789 8.43939 17.8155 8.55279 18.2443C8.6662 18.673 9.12511 18.9342 9.57597 18.8263C10.6645 18.5659 11.7913 18.4338 12.925 18.4338C14.8488 18.4338 16.7085 18.8058 18.4527 19.5394C18.8731 19.7162 19.3789 19.5298 19.5646 19.1304C19.7525 18.726 19.5596 18.2515 19.1345 18.0727ZM18.9715 18.8809C18.9286 18.9732 18.8119 19.0161 18.7148 18.9753C16.8876 18.2067 14.9396 17.817 12.925 17.817C11.738 17.817 10.558 17.9553 9.4178 18.2281C9.32179 18.2511 9.22007 18.1992 9.18703 18.1105C9.14925 18.0091 9.21319 17.8954 9.32284 17.8692C10.4941 17.589 11.706 17.4469 12.925 17.4469C14.9941 17.4469 16.995 17.8472 18.8722 18.6368C18.9703 18.6781 19.0148 18.7876 18.9715 18.8809Z" fill="white" stroke="white" stroke-width="0.1"/>
<path d="M20.2866 15.1404C17.9573 14.1878 15.4806 13.7048 12.925 13.7048C11.66 13.7048 10.3955 13.8261 9.16675 14.0653C8.6246 14.1708 8.26401 14.6892 8.37511 15.2058C8.48738 15.7275 9.02528 16.0652 9.57405 15.9588C10.6691 15.7456 11.7965 15.6376 12.925 15.6376C15.203 15.6376 17.4098 16.0677 19.4841 16.9159C19.6105 16.9677 19.7473 16.9947 19.885 16.9947C20.2916 16.9947 20.6581 16.7651 20.8186 16.4099C21.0398 15.9203 20.8012 15.3508 20.2866 15.1404ZM20.2229 16.1662C20.1437 16.3413 19.9243 16.4246 19.7402 16.3493C17.5845 15.4677 15.2915 15.0207 12.925 15.0207C11.7529 15.0207 10.5818 15.133 9.44419 15.3545C9.24565 15.3931 9.05096 15.2709 9.01039 15.0821C8.97023 14.8954 9.10062 14.7078 9.29673 14.6696C10.4828 14.4387 11.7036 14.3217 12.925 14.3217C15.3919 14.3217 17.7826 14.7878 20.0304 15.707C20.2165 15.7832 20.3029 15.9891 20.2229 16.1662Z" fill="white" stroke="white" stroke-width="0.1"/>
<path d="M22.0083 12.086C21.4872 11.8645 20.9522 11.6601 20.4182 11.4784C20.2496 11.421 20.0641 11.5045 20.0037 11.6649C19.9434 11.8253 20.0312 12.0018 20.1998 12.0591C20.7183 12.2356 21.2378 12.4341 21.7437 12.6492C22.0124 12.7634 22.137 13.0721 22.0166 13.3282C21.8966 13.5838 21.5718 13.7021 21.3028 13.5878C18.6612 12.4649 15.8425 11.8955 12.925 11.8955C11.5657 11.8955 10.2066 12.0225 8.88542 12.2729C8.59617 12.3278 8.30748 12.1437 8.24997 11.8692C8.19234 11.5942 8.38558 11.3194 8.67431 11.2647C10.0647 11.0012 11.4948 10.8675 12.925 10.8675C15.014 10.8675 17.0722 11.1477 19.0426 11.7003C19.2143 11.7484 19.3946 11.6551 19.4453 11.4917C19.496 11.3283 19.3978 11.1568 19.226 11.1087C17.196 10.5394 15.076 10.2507 12.925 10.2507C11.4524 10.2507 9.97962 10.3884 8.5476 10.6598C8.07093 10.7501 7.69072 11.1195 7.60785 11.5759C7.58298 11.7127 7.58544 11.8536 7.614 11.9897C7.70896 12.4432 8.09726 12.8049 8.57712 12.8837C8.72098 12.9073 8.86908 12.9049 9.01221 12.8778C10.2916 12.6353 11.6081 12.5124 12.925 12.5124C15.7507 12.5124 18.4804 13.0637 21.0382 14.1509C21.4961 14.3455 22.046 14.2399 22.3893 13.8929C22.4802 13.8012 22.5545 13.6949 22.6086 13.5799C22.8761 13.0105 22.6068 12.3404 22.0083 12.086Z" fill="white" stroke="white" stroke-width="0.1"/>
</svg>
