<svg width="76" height="83" viewBox="0 0 76 83" fill="none" xmlns="http://www.w3.org/2000/svg">
<path d="M37.8224 65.0031C44.3413 64.6528 50.8369 65.7304 56.4721 62.0994C64.1804 57.1326 74.3236 51.3779 74.2471 41.5332C74.1706 31.691 62.4818 28.259 56.1553 21.3163C49.8593 14.4072 46.6769 2.33325 37.8224 1.561C28.8178 0.775661 22.2858 10.3445 16.3408 17.8439C10.9168 24.6861 5.95502 32.4473 6.13564 41.5332C6.3132 50.4644 10.5376 59.2251 17.2625 64.206C23.1804 68.5893 30.702 65.3856 37.8224 65.0031Z" stroke="black"/>
<path d="M49.3266 53.0394L42.535 53.5751L42.4891 53.5789C40.2682 53.7863 38.0859 54.3448 36.0091 55.2372L31.6383 57.0549C30.7122 57.44 29.7216 57.6007 28.7341 57.526C27.7466 57.4512 26.7853 57.1429 25.9155 56.6218C25.0457 56.1008 24.2878 55.3793 23.6935 54.5064C23.0992 53.6335 22.6822 52.6297 22.4711 51.5632L20.0746 39.4588C19.8815 38.4834 19.8645 37.4757 20.0246 36.4932C20.1847 35.5106 20.5187 34.5724 21.0075 33.7322C21.4964 32.892 22.1305 32.1662 22.8737 31.5962C23.617 31.0263 24.4547 30.6233 25.3392 30.4104L44.9228 25.6959C45.8073 25.483 46.7211 25.4643 47.6121 25.6408C48.5031 25.8173 49.3538 26.1856 50.1157 26.7247C50.8776 27.2638 51.5358 27.9632 52.0526 28.7828C52.5694 29.6024 52.9348 30.5262 53.1279 31.5015L55.5696 43.8356C55.7805 44.9007 55.7811 46.0033 55.5715 47.0687C55.3619 48.1341 54.9469 49.1373 54.3548 50.0103C53.7627 50.8832 53.0072 51.6056 52.1396 52.1282C51.2721 52.6509 50.3127 52.9616 49.3266 53.0394Z" stroke="black" stroke-linecap="round" stroke-linejoin="round"/>
<path d="M33.3812 36.4209L35.5081 47.166L44.3179 40.084L33.3812 36.4209Z" stroke="black" stroke-linecap="round" stroke-linejoin="round"/>
</svg>
